<svg width="22" height="19" viewBox="0 0 22 19" fill="none" xmlns="http://www.w3.org/2000/svg">
<g id="Group 37867">
<path id="Vector" d="M20.8129 14.2762L20.1097 8.68394C19.9107 7.09788 18.5837 5.9015 17.0238 5.9015H16.5377C16.0473 4.69402 15.1703 3.6581 14.0676 2.98005L14.4758 2.0469L14.2703 1.95965C11.8038 0.911888 9.50613 0.911888 7.03896 1.95965L6.83342 2.0469L7.21204 2.91202C6.0192 3.61521 5.09248 4.67924 4.60495 5.90076H4.1434C2.58347 5.90076 1.25721 7.09714 1.05744 8.6832L0.35573 14.2762C0.241062 15.1857 0.514391 16.1018 1.10432 16.7902C1.69497 17.4786 2.54669 17.8742 3.44096 17.8742H17.7262C18.6205 17.8742 19.4722 17.4793 20.0628 16.7909C20.6535 16.1025 20.9268 15.1864 20.8122 14.2769L20.8129 14.2762ZM4.0244 6.40135H5.55548V17.4047H4.0244V6.40135ZM5.98819 6.34515H15.1552V17.4298H5.98819V6.34515ZM17.119 17.4047H15.5879V6.40135H17.119V17.4047ZM13.8982 2.28499L13.2534 3.75792C11.4216 3.05325 9.88836 3.05325 8.05655 3.75792L7.41181 2.28499C9.61864 1.39917 11.6913 1.39917 13.8982 2.28499ZM7.39089 3.32092L7.8301 4.32505L8.02265 4.24667C9.89197 3.48655 11.4173 3.48655 13.2873 4.24667L13.4799 4.32505L13.8895 3.38821C14.8407 3.98566 15.6074 4.87001 16.0668 5.9015H5.07517C5.53673 4.85374 6.35383 3.94129 7.39017 3.32018L7.39089 3.32092ZM1.42958 16.4974C0.921139 15.9044 0.686754 15.1162 0.784835 14.3331L1.48727 8.74087C1.63511 7.56741 2.49909 6.6424 3.59097 6.40578V17.4298H3.44096C2.67074 17.4298 1.93729 17.0897 1.42885 16.4967L1.42958 16.4974ZM19.7376 16.4974C19.2292 17.0904 18.4957 17.4298 17.7255 17.4298H17.551V6.39987C18.6551 6.62835 19.5306 7.55854 19.6792 8.74087L20.3823 14.3331C20.4804 15.1162 20.2453 15.9051 19.7369 16.4974H19.7376Z" fill="#474747"/>
<g id="Vector (Stroke)">
<path fill-rule="evenodd" clip-rule="evenodd" d="M14.3181 1.84234C14.3181 1.84234 14.3181 1.84234 14.3181 1.84234L14.641 1.97941L14.2253 2.92983C15.2829 3.60695 16.1281 4.60938 16.62 5.77453H17.0243C18.6464 5.77453 20.0258 7.01826 20.2328 8.66733C20.2328 8.66732 20.2328 8.66734 20.2328 8.66733L20.9437 14.3212L20.9424 14.3225C21.0418 15.2475 20.7568 16.174 20.1561 16.874C19.5421 17.5897 18.6565 18.0002 17.7267 18.0002H3.44145C2.51155 18.0002 1.62605 17.5889 1.01201 16.8733C0.398692 16.1576 0.114482 15.2051 0.233698 14.2595L0.935402 8.66662C1.1431 7.01764 2.52168 5.7738 4.14389 5.7738H4.52316C5.01587 4.59071 5.91115 3.56053 7.05452 2.85986L6.6692 1.97942L6.99212 1.84234C6.99212 1.84234 6.99213 1.84233 6.99212 1.84234C9.48958 0.781722 11.8214 0.78172 14.3181 1.84234ZM14.2234 2.07605C11.7873 1.04116 9.52366 1.04116 7.08677 2.07605L6.99862 2.11347L7.37093 2.96416L7.27417 3.0212C6.10348 3.71133 5.19625 4.75439 4.71981 5.94816L4.68842 6.02681H4.14389C2.64627 6.02681 1.37234 7.17576 1.18047 8.69886C1.18047 8.69888 1.18047 8.69884 1.18047 8.69886L0.478754 14.2918C0.368633 15.1653 0.631121 16.0452 1.19767 16.7063C1.76492 17.3674 2.58284 17.7472 3.44145 17.7472H17.7267C18.5854 17.7472 19.4033 17.3681 19.9705 16.707C20.5378 16.0459 20.8003 15.1661 20.6901 14.2927L20.6824 14.231L20.6831 14.2302L19.9877 8.69964C19.7966 7.1766 18.522 6.02755 17.0243 6.02755H16.4558L16.4241 5.94962C15.944 4.76739 15.0848 3.75233 14.0045 3.08805L13.9106 3.03028L14.3116 2.11348L14.2234 2.07605ZM7.57836 2.35461L8.12255 3.59782C9.8986 2.93733 11.4124 2.93733 13.1884 3.59782L13.7326 2.35461C11.6403 1.54403 9.67065 1.54403 7.57836 2.35461ZM13.8986 2.28454L13.9437 2.16676C11.7079 1.2693 9.60303 1.2693 7.36722 2.16676L7.24656 2.21519L7.9918 3.9177L8.10049 3.87589C9.90429 3.182 11.4067 3.182 13.2105 3.87589L13.3191 3.9177L14.0114 2.33628L13.8986 2.28454ZM7.41062 3.16118L7.49485 3.24752L7.89495 4.16226L7.97751 4.12866C9.87612 3.35662 11.4341 3.35662 13.3334 4.12864L13.416 4.16226L13.8347 3.20462L13.9546 3.27991C14.9266 3.89039 15.71 4.79391 16.1797 5.84855L16.2594 6.02755H4.8844L4.96305 5.84902C5.43586 4.77572 6.27134 3.84399 7.32826 3.21054L7.41062 3.16118ZM5.27109 5.77453H15.8712C15.4365 4.88555 14.7653 4.11844 13.9445 3.5726L13.5447 4.48694L13.2422 4.3638C13.2422 4.3638 13.2422 4.36381 13.2422 4.3638C11.4015 3.6156 9.90877 3.61559 8.06878 4.36378C8.06877 4.36379 8.06879 4.36378 8.06878 4.36378L7.76623 4.48693L7.33518 3.50145C6.4341 4.07057 5.71389 4.86631 5.27109 5.77453ZM5.98868 6.3447H5.86514V17.5559H15.2792V6.21819H5.98868V6.3447ZM15.0321 6.4712H6.11222V17.3028H15.0321V6.4712ZM17.4279 6.24478L17.5759 6.27541C18.7309 6.51442 19.6468 7.48717 19.8022 8.72427L20.5054 14.3165C20.5967 15.0461 20.4116 15.7807 19.9941 16.3704H20.011L19.8309 16.5804C19.299 17.2008 18.5317 17.5559 17.726 17.5559H17.4279V6.24478ZM19.609 16.4548L19.6446 16.4134C20.1295 15.8485 20.3539 15.0959 20.2603 14.3488C20.2603 14.3488 20.2603 14.3488 20.2603 14.3488L19.5571 8.75657C19.4222 7.68236 18.6577 6.82591 17.675 6.55881V17.3028H17.726C18.4426 17.3028 19.1258 16.9948 19.609 16.4548ZM3.715 6.24925V17.5559H3.44145C2.63566 17.5559 1.86839 17.2 1.33651 16.5797C0.805085 15.9594 0.560253 15.1352 0.66279 14.3166L1.36523 8.72428C1.51992 7.49648 2.42365 6.52909 3.56588 6.28156L3.715 6.24925ZM1.52285 16.4135C2.00782 16.9787 2.70714 17.3028 3.44145 17.3028H3.46792V6.56629C2.49762 6.84048 1.74451 7.69143 1.61029 8.75656C1.61029 8.75657 1.61029 8.75654 1.61029 8.75656L0.907863 14.3488C0.814281 15.0959 1.03787 15.8479 1.52285 16.4135ZM3.90135 6.27438H5.67951V17.5307H3.90135V6.27438ZM4.14843 6.5274V17.2777H5.43243V6.5274H4.14843ZM15.4648 6.27438H17.243V17.5307H15.4648V6.27438ZM15.7119 6.5274V17.2777H16.9959V6.5274H15.7119Z" fill="#474747"/>
<path d="M14.3181 1.84234C14.3181 1.84234 14.3181 1.84234 14.3181 1.84234ZM14.3181 1.84234C11.8214 0.78172 9.48958 0.781722 6.99212 1.84234M14.3181 1.84234L14.641 1.97941L14.2253 2.92983C15.2829 3.60695 16.1281 4.60938 16.62 5.77453H17.0243C18.6464 5.77453 20.0258 7.01826 20.2328 8.66733M20.2328 8.66733C20.2328 8.66732 20.2328 8.66734 20.2328 8.66733ZM20.2328 8.66733L20.9437 14.3212L20.9424 14.3225C21.0418 15.2475 20.7568 16.174 20.1561 16.874C19.5421 17.5897 18.6565 18.0002 17.7267 18.0002H3.44145C2.51155 18.0002 1.62605 17.5889 1.01201 16.8732C0.398692 16.1576 0.114482 15.2051 0.233698 14.2595L0.935402 8.66662C1.1431 7.01764 2.52168 5.7738 4.14389 5.7738H4.52316C5.01587 4.59071 5.91115 3.56053 7.05452 2.85986L6.6692 1.97942L6.99212 1.84234M6.99212 1.84234C6.99212 1.84234 6.99213 1.84233 6.99212 1.84234ZM1.18047 8.69886C1.37234 7.17576 2.64627 6.02681 4.14389 6.02681H4.68842L4.71981 5.94816C5.19625 4.75439 6.10348 3.71133 7.27417 3.0212L7.37093 2.96416L6.99862 2.11347L7.08677 2.07605C9.52366 1.04116 11.7873 1.04116 14.2234 2.07605L14.3116 2.11348L13.9106 3.03028L14.0045 3.08805C15.0848 3.75233 15.944 4.76739 16.4241 5.94962L16.4558 6.02755H17.0243C18.522 6.02755 19.7966 7.1766 19.9877 8.69964L20.6831 14.2302L20.6824 14.231L20.6901 14.2927C20.8003 15.1661 20.5378 16.0459 19.9705 16.707C19.4033 17.3681 18.5854 17.7472 17.7267 17.7472H3.44145C2.58284 17.7472 1.76492 17.3674 1.19767 16.7063C0.631121 16.0452 0.368633 15.1653 0.478754 14.2918L1.18047 8.69886ZM1.18047 8.69886C1.18047 8.69884 1.18047 8.69888 1.18047 8.69886ZM13.2422 4.3638C13.2422 4.36381 13.2422 4.3638 13.2422 4.3638ZM13.2422 4.3638C11.4015 3.6156 9.90877 3.61559 8.06878 4.36378M13.2422 4.3638L13.5447 4.48694L13.9445 3.5726C14.7653 4.11844 15.4365 4.88555 15.8712 5.77453H5.27109C5.71389 4.86631 6.4341 4.07057 7.33518 3.50145L7.76623 4.48693L8.06878 4.36378M8.06878 4.36378C8.06879 4.36378 8.06877 4.36379 8.06878 4.36378ZM20.2603 14.3488C20.3539 15.0959 20.1295 15.8485 19.6446 16.4134L19.609 16.4548C19.1258 16.9948 18.4426 17.3028 17.726 17.3028H17.675V6.55881C18.6577 6.82591 19.4222 7.68236 19.5571 8.75657M20.2603 14.3488C20.2603 14.3488 20.2603 14.3488 20.2603 14.3488ZM20.2603 14.3488L19.5571 8.75657M19.5571 8.75657L19.677 8.74077M1.61029 8.75656C1.74451 7.69143 2.49762 6.84048 3.46792 6.56629V17.3028H3.44145C2.70714 17.3028 2.00782 16.9787 1.52285 16.4135C1.03787 15.8479 0.81428 15.0959 0.907863 14.3488L1.61029 8.75656ZM1.61029 8.75656C1.61029 8.75654 1.61029 8.75657 1.61029 8.75656ZM8.12255 3.59782L7.57836 2.35461C9.67065 1.54403 11.6403 1.54403 13.7326 2.35461L13.1884 3.59782C11.4124 2.93733 9.8986 2.93733 8.12255 3.59782ZM13.8986 2.28454L13.9437 2.16676C11.7079 1.2693 9.60303 1.2693 7.36722 2.16676L7.24656 2.21519L7.9918 3.9177L8.10049 3.87589C9.90429 3.182 11.4067 3.182 13.2105 3.87589L13.3192 3.9177L14.0114 2.33628L13.8986 2.28454ZM7.41062 3.16118L7.32826 3.21054C6.27134 3.84399 5.43586 4.77572 4.96305 5.84902L4.8844 6.02755H16.2594L16.1797 5.84855C15.71 4.79391 14.9266 3.89039 13.9546 3.27991L13.8347 3.20462L13.416 4.16226L13.3334 4.12864C11.4341 3.35661 9.87612 3.35662 7.97751 4.12866L7.89495 4.16226L7.49485 3.24752L7.41062 3.16118ZM5.98868 6.3447H5.86514V17.5559H15.2792V6.21819H5.98868V6.3447ZM6.11222 6.4712H15.0321V17.3028H6.11222V6.4712ZM17.5759 6.27541L17.4279 6.24478V17.5559H17.726C18.5317 17.5559 19.299 17.2008 19.8309 16.5804L20.011 16.3704H19.9941C20.4116 15.7807 20.5967 15.0461 20.5054 14.3165L19.8022 8.72427C19.6468 7.48717 18.7309 6.51442 17.5759 6.27541ZM3.715 6.24925L3.56588 6.28156C2.42365 6.52909 1.51992 7.49648 1.36523 8.72428L0.66279 14.3166C0.560253 15.1352 0.805085 15.9594 1.33651 16.5797C1.86839 17.2 2.63566 17.5559 3.44145 17.5559H3.715V6.24925ZM3.90135 6.27438H5.67951V17.5307H3.90135V6.27438ZM4.14843 17.2777V6.5274H5.43243V17.2777H4.14843ZM15.4648 6.27438H17.243V17.5307H15.4648V6.27438ZM15.7119 17.2777V6.5274H16.9959V17.2777H15.7119Z" stroke="#474747" stroke-width="0.2"/>
</g>
<path id="Vector_2" d="M7.28125 10.4639V13.0363C7.28125 14.0589 8.09258 14.8908 9.08998 14.8908H12.0728C13.0702 14.8908 13.8823 14.0589 13.8823 13.0363V10.4639H7.28125ZM13.4496 13.0363C13.4496 13.8142 12.8322 14.4471 12.0728 14.4471H9.08998C8.3313 14.4471 7.71396 13.8142 7.71396 13.0363V10.9075H13.4496V13.0363Z" fill="#474747"/>
<path id="Vector (Stroke)_2" fill-rule="evenodd" clip-rule="evenodd" d="M7.28077 10.3359H14.0053V13.0349C14.0053 14.1273 13.138 15.0159 12.0723 15.0159H9.0895C8.02373 15.0159 7.15723 14.1272 7.15723 13.0349V10.4624H7.28077V10.3359ZM7.40431 10.589V13.0349C7.40431 13.9878 8.16047 14.7628 9.0895 14.7628H12.0723C13.0014 14.7628 13.7582 13.9877 13.7582 13.0349V10.589H7.40431ZM7.58994 10.7796H13.5726V13.0349C13.5726 13.8825 12.9001 14.5722 12.0723 14.5722H9.0895C8.26244 14.5722 7.58994 13.8825 7.58994 13.0349V10.7796ZM7.83702 11.0326V13.0349C7.83702 13.743 8.39918 14.3192 9.0895 14.3192H12.0723C12.7634 14.3192 13.3255 13.743 13.3255 13.0349V11.0326H7.83702Z" fill="#474747" stroke="#474747" stroke-width="0.2"/>
</g>
</svg>
