<svg width="19" height="19" viewBox="0 0 19 19" fill="none" xmlns="http://www.w3.org/2000/svg">
<g id="Group 37872">
<g id="Group 3592">
<g id="Group 3595">
<path id="Vector" d="M9.41587 18.4409C12.2284 18.4409 15.0392 17.9815 17.8312 17.0619L18 17.0061V8.55904H17.7542C17.1799 8.55904 16.6933 8.35067 16.2673 7.92327C14.7058 6.35314 14.5518 2.38679 14.5583 0.755127V0.438477H12.2407L12.1669 0.52215C11.8777 0.852748 11.0151 1.62059 9.26185 1.62059C7.50865 1.62059 6.85079 0.872436 6.64106 0.550042L6.56815 0.438477H4.27096V0.684579C4.27096 2.72805 3.68355 8.55986 1.07587 8.55986H0.830097V17.0069L0.998863 17.0627C3.79088 17.9823 6.60338 18.4417 9.41505 18.4417L9.41587 18.4409ZM17.5084 16.6492C12.1374 18.381 6.69431 18.381 1.32247 16.6492V9.03811C2.64147 8.89702 3.61064 7.60662 4.20706 5.19646C4.65109 3.40073 4.74039 1.57711 4.75842 0.92986H6.30844C6.63123 1.35726 7.45704 2.11197 9.26185 2.11197C11.0667 2.11197 12.0653 1.34249 12.4602 0.92986H14.0668C14.0725 3.06275 14.333 6.67553 15.9191 8.27028C16.3738 8.72721 16.9071 8.98561 17.5084 9.03975V16.6492Z" fill="#474747" stroke="#474747" stroke-width="0.2"/>
<path id="Vector_2" d="M9.41618 8.08703C11.2505 8.08703 12.7432 6.59237 12.7432 4.7548V0.436523H12.2418L12.168 0.5202C11.8789 0.850798 11.0162 1.61864 9.26298 1.61864C7.50978 1.61864 6.85191 0.870485 6.64218 0.548091L6.56927 0.436523H6.08755V4.7548C6.08755 5.64487 6.43409 6.48162 7.06246 7.11082C7.69001 7.74003 8.52565 8.08703 9.41536 8.08703H9.41618ZM12.2516 1.12725V4.7548C12.2516 6.32083 10.9793 7.59482 9.41618 7.59482C8.65755 7.59482 7.94562 7.2995 7.41064 6.763C6.87485 6.22649 6.57993 5.51362 6.57993 4.7548V1.22815C7.01741 1.6375 7.83256 2.11084 9.26298 2.11084C10.8212 2.11084 11.7642 1.54809 12.2516 1.12725Z" fill="#474747" stroke="#474747" stroke-width="0.2"/>
<path id="Vector_3" d="M9.41587 18.4405C12.2284 18.4405 15.0392 17.9811 17.8312 17.0615L18 17.0057V13.4873L17.669 13.6095C12.1915 15.635 6.63778 15.635 1.1619 13.6095L0.830915 13.4873V17.0057L0.999681 17.0615C3.7917 17.9811 6.60419 18.4405 9.41587 18.4405ZM17.5084 16.6489C12.1374 18.3806 6.69431 18.3806 1.32247 16.6489V14.1912C6.69431 16.0985 12.1358 16.0985 17.5084 14.1912V16.6489Z" fill="#474747" stroke="#474747" stroke-width="0.2"/>
</g>
</g>
</g>
</svg>
