<svg width="41" height="39" viewBox="0 0 41 39" fill="none" xmlns="http://www.w3.org/2000/svg">
<g id="Group">
<path id="XMLID_5_" d="M8.89911 15.5378C8.89911 14.767 8.2887 14.126 7.52569 14.126C7.51766 14.126 7.51766 14.126 7.50963 14.126C3.36528 14.126 0 17.5258 0 21.7126C0 25.8995 3.36528 29.2993 7.50963 29.2993C7.51766 29.2993 7.51766 29.2993 7.52569 29.2993C8.2887 29.2993 8.89911 28.6583 8.89911 27.8874V15.5378Z" fill="#161616"/>
<path id="XMLID_4_" d="M31.2598 15.5388C31.2598 14.768 31.8702 14.127 32.6332 14.127C32.6412 14.127 32.6412 14.127 32.6492 14.127C36.7936 14.127 40.1589 17.5267 40.1589 21.7136C40.1589 25.9005 36.7936 29.3002 32.6492 29.3002C32.6412 29.3002 32.6412 29.3002 32.6332 29.3002C31.8702 29.3002 31.2598 28.6592 31.2598 27.8884V15.5388Z" fill="#161616"/>
<g id="Group_2">
<path id="XMLID_3_" d="M36.5205 20.2689C35.7495 20.2689 35.123 19.6117 35.123 18.7922C35.123 10.0533 28.3845 4.08137 20.0958 4.08137C11.8071 4.08137 5.06846 10.0614 5.06846 18.7922C5.06846 19.6036 4.44199 20.2689 3.67095 20.2689C2.89991 20.2689 2.27344 19.6117 2.27344 18.7922C2.27344 8.43051 10.273 0 20.0958 0C29.9185 0 37.9181 8.43051 37.9181 18.7922C37.9181 19.6117 37.2916 20.2689 36.5205 20.2689Z" fill="#161616"/>
</g>
<g id="Group_3">
<path id="XMLID_2_" d="M23.6532 36.0749C23.1873 36.0749 22.6974 36.0506 22.1914 36.01L22.352 34.1275C31.3636 34.9227 33.3555 27.3685 33.4358 27.0439L35.2509 27.4983C35.2268 27.5957 34.6486 29.9163 32.745 32.1152C31.1467 33.9815 28.3035 36.0749 23.6532 36.0749Z" fill="#161616"/>
</g>
<path id="XMLID_1_" d="M22.0231 38.0867C23.6378 38.0867 24.9467 36.7644 24.9467 35.1332C24.9467 33.502 23.6378 32.1797 22.0231 32.1797C20.4085 32.1797 19.0996 33.502 19.0996 35.1332C19.0996 36.7644 20.4085 38.0867 22.0231 38.0867Z" fill="#161616"/>
</g>
</svg>
