<svg width="50" height="48" viewBox="0 0 50 48" fill="none" xmlns="http://www.w3.org/2000/svg">
<g id="Group 1">
<g id="Group">
<path id="Vector" d="M12.8732 46.0602C15.6078 46.0602 17.8245 43.9559 17.8245 41.3602C17.8245 38.7644 15.6078 36.6602 12.8732 36.6602C10.1387 36.6602 7.92188 38.7644 7.92188 41.3602C7.92188 43.9559 10.1387 46.0602 12.8732 46.0602Z" stroke="#161616" stroke-width="2" stroke-miterlimit="10"/>
</g>
<g id="Group_2">
<path id="Vector_2" d="M38.6213 46.0602C41.3558 46.0602 43.5726 43.9559 43.5726 41.3602C43.5726 38.7644 41.3558 36.6602 38.6213 36.6602C35.8867 36.6602 33.6699 38.7644 33.6699 41.3602C33.6699 43.9559 35.8867 46.0602 38.6213 46.0602Z" stroke="#161616" stroke-width="2" stroke-miterlimit="10"/>
</g>
<path id="Vector_3" d="M44.561 41.3602H46.5416C47.5497 41.3602 48.5221 40.4372 48.5221 39.4802C48.5221 39.4802 48.5221 32.0853 48.5221 30.4421C48.5221 28.7981 47.1219 26.9369 47.1219 26.9369L43.037 21.765C42.2012 20.809 40.9515 19.7402 39.6097 19.7402H31.6876C30.6795 19.7402 29.707 20.6643 29.707 21.6202V39.4802C29.707 40.4334 30.6854 41.3527 31.6876 41.3602H33.6681M48.5221 31.0202C48.5221 31.0202 38.6194 31.0202 37.6292 31.0202C36.6389 31.0202 35.6486 30.0802 35.6486 29.1402C35.6486 28.5979 35.6486 26.8015 35.6486 25.3802C35.6486 24.3397 36.6389 23.5002 37.6292 23.5002C38.6194 23.5002 44.4085 23.5002 44.4085 23.5002" stroke="#161616" stroke-width="2" stroke-miterlimit="10"/>
<path id="Vector_4" d="M17.8248 41.3603H27.88C28.8861 41.3603 29.708 40.581 29.708 39.625V15.0403C29.708 14.0843 27.5918 13.0879 26.5847 13.0879H2.81827C1.81117 13.0879 0.990234 13.8672 0.990234 14.8231V39.4803C0.990234 40.4372 1.96367 41.3603 2.97077 41.3603H7.92211" stroke="#161616" stroke-width="2" stroke-miterlimit="10"/>
</g>
</svg>
