<svg width="17" height="19" viewBox="0 0 17 19" fill="none" xmlns="http://www.w3.org/2000/svg">
<g id="Hoodie">
<path id="Vector" d="M5.16188 18.0002H11.7535C12.2541 18.0002 12.6611 17.5969 12.6611 17.101V16.2266H4.25348V17.101C4.25348 17.5969 4.66127 18.0002 5.16188 18.0002ZM12.2047 16.6788V17.101C12.2047 17.3474 12.0023 17.548 11.7535 17.548H5.16188C4.91234 17.548 4.70996 17.3474 4.70996 17.101V16.6788H12.2047Z" fill="#474747" stroke="#474747" stroke-width="0.2"/>
<path id="Vector_2" d="M4.71002 16.7266V16.6792H12.2047V16.7176L12.4504 16.6988C12.9199 16.6626 13.2881 16.2683 13.2881 15.8017V15.4384L13.2774 15.4053C13.2774 15.4053 13.2759 15.3985 13.2759 15.3872L13.282 15.161L12.8255 15.1475L12.8194 15.3751C12.8187 15.4196 12.8225 15.4618 12.8316 15.5017V15.801C12.8316 15.997 12.7015 16.1666 12.5204 16.2261H4.42395C4.24212 16.1666 4.11354 15.997 4.11354 15.801L4.10898 15.1535L3.6525 15.1565L3.65706 15.8025C3.65706 16.254 3.99942 16.6377 4.45286 16.6942L4.70925 16.7259L4.71002 16.7266Z" fill="#474747" stroke="#474747" stroke-width="0.2"/>
<path id="Vector_3" d="M4.56542 16.7014H12.3789C12.404 16.7014 12.4276 16.7007 12.4519 16.6984L12.6611 16.6811V16.2266H4.25349V16.6668L4.45053 16.6939C4.48705 16.6992 4.52509 16.7014 4.56618 16.7014H4.56542Z" fill="#474747" stroke="#474747" stroke-width="0.2"/>
<path id="Vector_4" d="M5.456 14.7087H11.7061V11.7651H11.5185C11.0014 11.7651 10.5806 11.3078 10.5806 10.7458V10.542H6.58146V10.7458C6.58146 11.3078 6.16066 11.7651 5.64357 11.7651H5.456V14.7087ZM11.3309 14.301H5.83115V12.1585C6.40514 12.0688 6.86095 11.5742 6.94348 10.9497H10.2192C10.3017 11.5735 10.7569 12.0688 11.3315 12.1585V14.301H11.3309Z" fill="#474747" stroke="#474747" stroke-width="0.2"/>
<path id="Vector_5" d="M8.44911 5.12171L12.457 3.81539V3.44453C12.457 2.09676 11.3501 1 9.98974 1H7.06597C5.70565 1 4.59944 2.09676 4.59944 3.44453V3.81313L8.44911 5.12171ZM12.0005 3.4875L8.45216 4.64456L5.05593 3.48976V3.44453C5.05593 2.34626 5.95748 1.45227 7.06597 1.45227H9.98974C11.0982 1.45227 12.0005 2.34551 12.0005 3.44453V3.4875Z" fill="#474747" stroke="#474747" stroke-width="0.2"/>
<path id="Vector_6" d="M8.59428 5.05963L8.61711 5.03475L11.5576 1.86658L11.2213 1.56055L8.25649 4.7551L8.59428 5.05963Z" fill="#474747" stroke="#474747" stroke-width="0.2"/>
<path id="Vector_7" d="M8.29949 5.05501L8.62207 4.7354L8.6099 4.72334L5.64733 1.71875L5.32094 2.03534L8.29949 5.05501Z" fill="#474747" stroke="#474747" stroke-width="0.2"/>
<path id="Vector_8" d="M6.59062 2.77344H10.1953V3.22571H6.59062V2.77344Z" fill="#474747" stroke="#474747" stroke-width="0.2"/>
<path id="Vector_9" d="M7.42633 4.6123H7.88281V6.65658H7.42633V4.6123Z" fill="#474747" stroke="#474747" stroke-width="0.2"/>
<path id="Vector_10" d="M8.94781 4.64648H9.4043V7.77998H8.94781V4.64648Z" fill="#474747" stroke="#474747" stroke-width="0.2"/>
<path id="Vector_11" d="M13.6075 17.0173H14.8849C15.2653 17.0173 15.5742 16.7112 15.5742 16.3343V16.1655C15.5742 15.8843 15.4046 15.6356 15.1413 15.5315L15.1002 15.5157L13.4059 15.5127L13.3565 15.53C13.0894 15.6318 12.9175 15.8813 12.9175 16.1655V16.3343C12.9175 16.7112 13.2264 17.0173 13.6068 17.0173H13.6075ZM15.0051 15.968C15.0744 16.0087 15.1177 16.0833 15.1177 16.1655V16.3343C15.1177 16.4617 15.0135 16.565 14.8849 16.565H13.6075C13.479 16.565 13.3747 16.4617 13.3747 16.3343V16.1655C13.3747 16.0826 13.4181 16.0079 13.4881 15.968H15.0051Z" fill="#474747" stroke="#474747" stroke-width="0.2"/>
<path id="Vector_12" d="M13.4679 15.9679H15.3509C15.6933 15.9679 15.9794 15.7041 16.0022 15.3671C16.1521 13.1525 16.0128 10.9349 15.5898 8.77526C15.3152 7.37699 14.9188 5.99002 14.4098 4.65205L14.3923 4.60606L14.3619 4.57591C14.3505 4.5631 14.3383 4.55028 14.3254 4.53747L14.088 4.30078L13.9541 4.60682C13.808 4.93924 13.6726 5.27995 13.5509 5.6184C12.9742 7.2202 12.8798 8.16997 12.8646 8.95843C12.8479 9.76348 12.8502 10.5557 12.8532 11.3947C12.8547 11.9088 12.857 12.4402 12.8547 13.0168L13.3112 13.0183C13.3135 12.4402 13.3112 11.9072 13.3097 11.3924C13.3066 10.5565 13.3044 9.76724 13.3211 8.96672C13.3348 8.26796 13.3979 7.38754 13.9815 5.76916C14.0385 5.61086 14.0986 5.45181 14.161 5.29427C14.5757 6.45737 14.9051 7.65438 15.1417 8.86044C15.5571 10.9816 15.6933 13.16 15.5465 15.3355C15.5396 15.4357 15.4536 15.5149 15.3502 15.5149H13.4459C13.3888 15.5126 13.2899 15.45 13.2777 15.4078C13.2762 15.4026 13.2747 15.3965 13.2747 15.386L13.2808 15.1598C13.2914 14.743 13.2983 14.3337 13.3036 13.9063L12.8471 13.901C12.8418 14.3261 12.8342 14.7339 12.8243 15.1478L12.8182 15.3739C12.8167 15.4327 12.8243 15.4885 12.841 15.5397C12.9164 15.7938 13.207 15.9596 13.4329 15.9664C13.4489 15.9664 13.458 15.9671 13.4672 15.9671L13.4679 15.9679Z" fill="#474747" stroke="#474747" stroke-width="0.2"/>
<path id="Vector_13" d="M13.9978 4.85152L14.3311 4.54247C14.0815 4.27864 13.8038 4.04196 13.5041 3.83919C13.1343 3.58893 12.7303 3.38842 12.3035 3.24219L12.1544 3.66958C12.5432 3.80225 12.9106 3.98542 13.2469 4.21231C13.5193 4.39624 13.7719 4.61106 13.9978 4.85077V4.85152Z" fill="#474747" stroke="#474747" stroke-width="0.2"/>
<path id="Vector_14" d="M2.03235 17.0169H3.30973C3.69014 17.0169 3.99902 16.7109 3.99902 16.334V16.1652C3.99902 15.8825 3.82708 15.633 3.56156 15.5305L3.52124 15.5146H1.81628L1.77519 15.5312C1.51272 15.6353 1.3423 15.884 1.3423 16.1652V16.334C1.3423 16.7109 1.65118 17.0169 2.03158 17.0169H2.03235ZM3.42918 15.9677C3.49918 16.0084 3.54254 16.0823 3.54254 16.1652V16.334C3.54254 16.4614 3.43831 16.5647 3.30973 16.5647H2.03235C1.90377 16.5647 1.79954 16.4614 1.79954 16.334V16.1652C1.79954 16.083 1.8429 16.0084 1.91214 15.9677H3.42918Z" fill="#474747" stroke="#474747" stroke-width="0.2"/>
<path id="Vector_15" d="M2.63422 15.9601C3.06636 15.9601 3.48784 15.9435 3.90476 15.8847L4.09649 15.8576L4.10105 15.6654C4.13377 14.2226 4.11779 12.7806 4.10181 11.3854C4.09268 10.5826 4.08355 9.75193 4.08355 8.92729V8.91523C4.01584 7.64887 3.66055 6.28074 2.96441 4.61035L2.54216 4.78297C3.217 6.40135 3.56164 7.72048 3.62631 8.93332C3.62631 9.75796 3.63544 10.5879 3.64457 11.3899C3.65979 12.7181 3.675 14.0892 3.64761 15.4596C3.0481 15.5244 2.42348 15.5086 1.76614 15.4913L1.50671 15.4852C1.47703 15.4792 1.40932 15.446 1.36824 15.4144C1.32259 15.33 1.31575 15.2101 1.3089 15.0729C1.30281 14.9583 1.29596 14.8294 1.26477 14.6953C1.22293 14.1714 1.25869 13.6076 1.29444 13.0611C1.31803 12.6947 1.34238 12.3163 1.34314 11.9537C1.51127 10.2924 1.75549 8.82553 2.08872 7.46947L1.64517 7.36243C1.30585 8.74261 1.05783 10.2336 0.887415 11.9198V11.9424C0.886654 12.2945 0.863068 12.6533 0.838722 13.0324C0.802203 13.6008 0.764164 14.1887 0.811334 14.7503L0.817417 14.7865C0.842524 14.8845 0.847852 14.9877 0.853178 15.097C0.863068 15.2847 0.87448 15.4981 1.00077 15.6865L1.01371 15.7053L1.02968 15.7212C1.13239 15.8229 1.33705 15.9345 1.48997 15.9383L1.75473 15.945C2.05373 15.9526 2.34587 15.9601 2.6327 15.9601H2.63422Z" fill="#474747" stroke="#474747" stroke-width="0.2"/>
<path id="Vector_16" d="M2.34931 6.5361C2.53875 5.90141 2.72515 5.35039 2.91839 4.85364L2.91992 4.85138C3.14587 4.61168 3.39846 4.39685 3.67083 4.21292C4.04515 3.95965 4.45674 3.76216 4.89648 3.62723L4.76106 3.19531C4.27795 3.34381 3.82451 3.5609 3.41368 3.8398C3.11392 4.04257 2.83623 4.27926 2.58668 4.54308L2.5243 4.60942L2.50832 4.65012C2.30519 5.16873 2.11042 5.74387 1.91185 6.40795L2.34931 6.5361Z" fill="#474747" stroke="#474747" stroke-width="0.2"/>
</g>
</svg>
