<svg width="155" height="17" viewBox="0 0 155 17" fill="none" xmlns="http://www.w3.org/2000/svg">
<g id="Logo">
<g id="Group">
<path id="Vector" d="M30.7918 0.517744C30.8025 0.407815 30.8486 0.315617 30.9231 0.244695C30.9976 0.173773 31.0933 0.134766 31.2104 0.134766H33.3812C33.5834 0.134766 33.7182 0.244695 33.782 0.464553L36.8503 9.0142C37.3646 7.57803 37.8825 6.1525 38.4004 4.74115C38.9183 3.3298 39.4326 1.90427 39.9434 0.468099C40.025 0.248241 40.1562 0.138312 40.3442 0.138312H42.5257C42.6427 0.138312 42.735 0.177319 42.8095 0.251787C42.8804 0.326255 42.9194 0.418454 42.9265 0.521291C43.1393 2.55321 43.3593 4.57803 43.5792 6.59221C43.7991 8.6064 44.019 10.6277 44.2389 12.656V12.6809C44.2389 12.9185 44.1112 13.0355 43.8558 13.0355H42.171C41.9085 13.0355 41.7737 12.9078 41.7631 12.6525L40.8763 4.43264L37.9818 12.4255C37.9535 12.5071 37.9073 12.5816 37.8435 12.6525C37.7796 12.7234 37.7122 12.7553 37.6449 12.7553H36.0806C36.0061 12.7553 35.9351 12.7234 35.8713 12.656C35.8075 12.5887 35.7613 12.5142 35.733 12.4255C35.2576 11.0887 34.7788 9.75888 34.2999 8.43619C33.8175 7.11704 33.3351 5.7837 32.8492 4.43973L31.9624 12.649C31.9624 12.9043 31.8276 13.0319 31.5616 13.0319H29.8767C29.6213 13.0319 29.4936 12.9043 29.4936 12.649L30.7918 0.517744Z" fill="#161616"/>
<path id="Vector_2" d="M57.331 12.5249C57.331 12.6278 57.3097 12.7164 57.2672 12.7802C57.2246 12.8441 57.1678 12.8973 57.0969 12.9363C57.026 12.9753 56.9479 13.0001 56.8592 13.0143C56.7706 13.0285 56.6748 13.0356 56.5755 13.0356H55.4901C55.3056 13.0356 55.1744 12.9859 55.1034 12.8866C55.0325 12.7873 54.9757 12.6632 54.9438 12.5143L54.8906 11.7767C54.6884 11.9788 54.4649 12.1703 54.2166 12.3441C53.9719 12.5214 53.7059 12.6739 53.4221 12.8051C53.1383 12.9363 52.8368 13.0356 52.5176 13.11C52.1983 13.1809 51.872 13.22 51.535 13.22C51.0136 13.22 50.5099 13.1526 50.0275 13.0143C49.5451 12.8795 49.0911 12.688 48.669 12.4398C48.2469 12.1951 47.8638 11.8973 47.5161 11.5497C47.1721 11.2022 46.8741 10.8157 46.6294 10.3937C46.3846 9.97173 46.1931 9.51783 46.0547 9.02846C45.9164 8.5391 45.849 8.03556 45.849 7.50719C45.849 6.97882 45.9164 6.47173 46.0547 5.98591C46.1931 5.5001 46.3811 5.0462 46.6294 4.62066C46.8741 4.19868 47.1721 3.8157 47.5161 3.46818C47.8602 3.12421 48.2433 2.82988 48.669 2.58166C49.0911 2.33697 49.5451 2.14549 50.0275 2.00719C50.5099 1.87244 51.0136 1.80151 51.535 1.80151C51.9075 1.80151 52.2586 1.84052 52.5956 1.91853C52.9326 1.99655 53.2447 2.10648 53.5391 2.24832C53.83 2.39017 54.1031 2.56038 54.3514 2.76251C54.5997 2.96463 54.8267 3.18095 55.0289 3.41854L55.1495 2.48946C55.1779 2.38662 55.2063 2.29797 55.2311 2.23414C55.2559 2.16676 55.2879 2.11357 55.3269 2.07456C55.3659 2.03556 55.412 2.00719 55.4688 1.993C55.5255 1.97882 55.6 1.97173 55.6851 1.97173H56.5542C56.6464 1.97173 56.7386 1.97882 56.8309 1.99655C56.9231 2.01428 57.0082 2.04265 57.0827 2.07811C57.1572 2.11712 57.2175 2.16676 57.2601 2.23414C57.3026 2.30151 57.3239 2.38307 57.3239 2.48236V12.5178L57.331 12.5249ZM48.293 7.51073C48.293 7.97527 48.3745 8.41144 48.5377 8.82634C48.7009 9.24123 48.9243 9.60293 49.2152 9.91499C49.5061 10.227 49.8466 10.4753 50.2368 10.6561C50.627 10.837 51.0562 10.9292 51.5173 10.9292C51.9784 10.9292 52.4253 10.837 52.8333 10.6561C53.2412 10.4753 53.5959 10.227 53.8974 9.91499C54.1989 9.60293 54.4366 9.23768 54.6104 8.82634C54.7842 8.41144 54.8693 7.97173 54.8693 7.51073C54.8693 7.04974 54.7806 6.61712 54.6104 6.20222C54.4366 5.78733 54.1989 5.42563 53.8974 5.11002C53.5959 4.79797 53.2412 4.54974 52.8333 4.3618C52.4253 4.1774 51.9855 4.0852 51.5173 4.0852C51.0491 4.0852 50.627 4.1774 50.2368 4.3618C49.8466 4.54619 49.5061 4.79442 49.2152 5.11002C48.9243 5.42208 48.7009 5.78733 48.5377 6.20222C48.3745 6.61712 48.293 7.05329 48.293 7.51073Z" fill="#161616"/>
<path id="Vector_3" d="M63.5709 13.0355C63.1134 13.0284 62.6842 12.961 62.2798 12.8262C61.8754 12.6915 61.5278 12.5 61.2299 12.2482C60.9319 11.9965 60.6942 11.6844 60.5204 11.3191C60.3466 10.9504 60.2615 10.5319 60.2615 10.0638V4.90071H59.2612C59.0945 4.90071 58.9668 4.8617 58.8817 4.78723C58.7965 4.71277 58.754 4.58865 58.754 4.41489V3.17021C58.754 3.00355 58.7965 2.88298 58.8817 2.8156C58.9668 2.74468 59.0909 2.71277 59.2612 2.71277H60.2615C60.2615 2.40426 60.2615 2.09929 60.265 1.79787C60.265 1.49291 60.2686 1.18794 60.2686 0.882979C60.2686 0.765958 60.3041 0.677305 60.3785 0.609929C60.4495 0.542553 60.563 0.48227 60.712 0.432624C60.8113 0.397163 60.9283 0.35461 61.0667 0.304965C61.205 0.255319 61.3505 0.20922 61.4959 0.163121C61.6413 0.117021 61.7868 0.0780142 61.9251 0.0460993C62.0634 0.0141844 62.1805 0 62.2727 0C62.4536 0 62.5707 0.0496454 62.6239 0.148936C62.6771 0.248227 62.7055 0.379433 62.7055 0.539007C62.7055 0.904255 62.7055 1.26596 62.7019 1.62766C62.7019 1.98936 62.6984 2.35461 62.6984 2.71986H63.9505C64.0995 2.71986 64.2165 2.75887 64.2981 2.83688C64.3797 2.91489 64.4187 3.03546 64.4187 3.20567V4.39007C64.4187 4.57447 64.3797 4.70567 64.2981 4.78723C64.2165 4.86879 64.0995 4.9078 63.9505 4.9078H62.6984V6.91135C62.6984 7.10993 62.6984 7.29787 62.7019 7.47163C62.7019 7.64539 62.7055 6.7695 62.7055 6.97163V8.62411C62.7055 8.62411 62.7055 8.64894 62.7019 8.65958C62.6984 8.67021 62.6984 8.6844 62.6984 8.69504V9.83333C62.6984 10.2163 62.7728 10.4929 62.9254 10.6596C63.0743 10.8262 63.3191 10.9113 63.6561 10.9113C63.7767 10.9113 63.8725 10.9539 63.9434 11.0426C64.0143 11.1277 64.0463 11.234 64.0463 11.3546V12.5638C64.0463 12.7128 64.0037 12.8333 63.9186 12.9149C63.8334 13 63.7164 13.0426 63.5674 13.0426L63.5709 13.0355Z" fill="#161616"/>
<path id="Vector_4" d="M73.5734 10.1419C73.6727 10.0781 73.7543 10.0391 73.8217 10.0249C73.8891 10.0107 73.9458 10.0036 73.9919 10.0036C74.0912 10.0107 74.1728 10.0603 74.2438 10.1596L74.453 10.4469L75.0702 11.3228C75.0986 11.3653 75.1235 11.4043 75.1412 11.4504C75.1589 11.493 75.166 11.532 75.166 11.5674C75.166 11.6596 75.1341 11.7412 75.0702 11.8157C75.0064 11.8901 74.9213 11.9611 74.8184 12.0355C74.3253 12.3937 73.7933 12.6845 73.2222 12.9043C72.6511 13.1242 72.0233 13.2341 71.3422 13.2341C70.8244 13.2341 70.3278 13.1667 69.8418 13.0284C69.3558 12.8937 68.9054 12.7022 68.4868 12.454C68.0682 12.2093 67.6816 11.9114 67.334 11.5674C66.9864 11.2235 66.6849 10.8405 66.433 10.415C66.1812 9.99297 65.9861 9.53907 65.8513 9.04971C65.7165 8.56389 65.6456 8.0568 65.6456 7.52843C65.6456 7.00006 65.713 6.49297 65.8513 6.00715C65.9896 5.52134 66.1812 5.06744 66.433 4.6419C66.6849 4.21637 66.9864 3.83694 67.334 3.48942C67.6816 3.1419 68.0647 2.85112 68.4868 2.6029C68.9054 2.35822 69.3594 2.16673 69.8418 2.02843C70.3242 1.89368 70.8244 1.82275 71.3422 1.82275C71.9843 1.82275 72.5944 1.92204 73.1654 2.11708C73.7401 2.31566 74.2473 2.58162 74.6943 2.91495L74.6836 2.90786C74.7652 2.98942 74.8432 3.06034 74.9213 3.12063C74.9993 3.18091 75.0383 3.27666 75.0383 3.40431C75.0383 3.43978 75.0383 3.47878 75.0348 3.52488C75.0312 3.57098 75.017 3.61353 74.9887 3.65609L74.2757 4.74119C74.1586 4.91495 74.0309 5.00361 73.8926 5.00361C73.7933 5.00361 73.6833 4.95396 73.5627 4.85467C73.2683 4.60644 72.9242 4.40431 72.527 4.24829C72.1332 4.09226 71.7289 4.01424 71.3103 4.01424C70.8598 4.01424 70.4342 4.10999 70.0369 4.29793C69.6396 4.48588 69.292 4.74119 68.9905 5.06389C68.689 5.38658 68.4513 5.75892 68.2775 6.18446C68.1037 6.60999 68.015 7.0568 68.015 7.52843C68.015 8.00006 68.1037 8.46105 68.2775 8.88304C68.4513 9.30503 68.689 9.67382 68.9869 9.98588C69.2849 10.2979 69.6361 10.5462 70.0333 10.727C70.4306 10.9079 70.8598 11.0001 71.3103 11.0001C71.8034 11.0001 72.229 10.915 72.5873 10.7447C72.9455 10.5745 73.2754 10.3689 73.5698 10.1313L73.5734 10.1419Z" fill="#161616"/>
<path id="Vector_5" d="M79.5084 4.56017C79.6538 4.37577 79.817 4.20556 80.005 4.04599C80.1894 3.88996 80.4022 3.75521 80.6434 3.63818C80.8846 3.52116 81.1578 3.43251 81.4664 3.36868C81.775 3.30485 82.119 3.27294 82.5092 3.27294C83.1654 3.27294 83.7436 3.4006 84.2473 3.65237C84.751 3.90414 85.1731 4.24457 85.5172 4.67719C85.8577 5.10982 86.1166 5.61336 86.294 6.19492C86.4713 6.77294 86.56 7.38996 86.56 8.03535V12.4112C86.56 12.6205 86.5104 12.7765 86.411 12.8793C86.3117 12.9822 86.1698 13.0353 85.9854 13.0353H84.6659C84.4353 13.0353 84.2792 12.9928 84.2012 12.9041C84.1232 12.819 84.0841 12.663 84.0841 12.4432V8.0318C84.0841 7.72329 84.0309 7.42542 83.9245 7.13819C83.8181 6.8474 83.662 6.59209 83.4634 6.36868C83.2648 6.14528 83.02 5.96797 82.7362 5.82967C82.4525 5.69492 82.1368 5.624 81.7892 5.624C81.5231 5.624 81.2571 5.67365 80.9911 5.77648C80.725 5.87932 80.4838 6.02471 80.2639 6.2162C80.044 6.40769 79.8666 6.64173 79.7283 6.91833C79.5899 7.19492 79.5155 7.51053 79.5119 7.86514V12.1205C79.5119 12.2304 79.5048 12.3403 79.4942 12.4502C79.4835 12.5602 79.4587 12.6595 79.4197 12.7446C79.3807 12.8297 79.3275 12.9006 79.2601 12.9538C79.1891 13.007 79.1004 13.0318 78.9905 13.0318H77.5574C77.3659 13.0318 77.224 12.9857 77.1353 12.8971C77.0467 12.8084 77.0005 12.6772 77.0005 12.5105V0.65946C77.0005 0.510524 77.0467 0.382864 77.1389 0.28712C77.2311 0.187829 77.3659 0.138184 77.5468 0.138184H78.9798C79.1146 0.138184 79.2352 0.187829 79.3452 0.290666C79.4552 0.393503 79.5119 0.510524 79.5119 0.652368V4.56017H79.5084Z" fill="#161616"/>
</g>
<g id="Group_2">
<path id="Vector_6" d="M94.3924 6.922C94.3924 6.23406 94.0696 5.89009 93.4205 5.89009C93.3318 5.89009 93.2218 5.89718 93.0906 5.91136C92.9594 5.92555 92.8707 5.89363 92.821 5.81562C92.7394 5.70569 92.8707 5.63122 93.2112 5.59221C93.3318 5.57094 93.4489 5.56385 93.5695 5.56385C94.1476 5.56385 94.5414 5.81207 94.7506 6.31207C94.8393 6.52129 94.8854 6.78725 94.8854 7.10995C94.8854 7.43264 94.7471 7.84044 94.4669 8.32626C93.9774 9.21278 93.2112 9.8759 92.1648 10.3121C91.8172 10.461 91.4554 10.5355 91.0794 10.5355C90.7034 10.5355 90.3203 10.4397 89.9195 10.2518C89.1817 9.90427 88.6673 9.31917 88.38 8.50356C88.2701 8.18441 88.2169 7.7837 88.2169 7.30143C88.2169 6.81917 88.3516 6.20924 88.6212 5.47165C89.2384 4.02838 90.2564 2.79789 91.6717 1.78016C93.1864 0.684411 94.6017 0.134766 95.9176 0.134766C97.035 0.134766 97.7799 0.58512 98.1594 1.47874C98.3297 1.86881 98.4148 2.33689 98.4148 2.88299C98.4148 3.06384 98.4042 3.24824 98.3864 3.43619C98.2871 4.30143 98.0282 5.29434 97.6096 6.41136C97.5387 6.59931 97.5032 6.72697 97.5032 6.7908C97.5032 6.85463 97.5174 6.88654 97.5493 6.88654C97.599 6.89718 97.6841 6.7908 97.8047 6.57094C98.5425 5.22697 99.3548 4.02129 100.242 2.95392C100.529 2.6064 100.88 2.32271 101.288 2.10285C101.735 1.86526 102.136 1.7447 102.49 1.7447C102.845 1.7447 103.122 1.8759 103.328 2.13477C103.533 2.39363 103.633 2.7376 103.633 3.16668C103.633 4.17377 103.239 5.85108 102.451 8.20214C102.292 8.67023 102.192 8.9681 102.153 9.09931C102.962 7.83335 103.973 6.44328 105.197 4.922C106.417 3.40427 107.503 2.50356 108.45 2.22342C108.62 2.17377 108.769 2.14895 108.9 2.14895C109.28 2.14895 109.524 2.33689 109.631 2.71633C109.67 2.84753 109.691 2.99647 109.691 3.16668C109.691 3.67377 109.492 4.32626 109.092 5.12413C108.276 6.75888 107.715 8.05675 107.417 9.02484C107.009 10.3014 106.804 11.1702 106.804 11.6383C106.804 12.1064 106.85 12.4965 106.939 12.805C107.119 13.422 107.591 13.7305 108.357 13.7305C108.396 13.7305 108.478 13.7305 108.606 13.7234C108.73 13.7163 108.801 13.7412 108.815 13.7908C108.829 13.8404 108.794 13.8865 108.712 13.9256C108.627 13.9646 108.542 13.9858 108.457 13.9858C108.372 13.9858 108.304 13.9787 108.255 13.9716C106.68 13.8121 105.892 13.0036 105.892 11.5497C105.892 11.0213 105.999 10.422 106.215 9.74824C106.431 9.07449 106.612 8.5603 106.761 8.20214C106.999 7.62413 107.503 6.49292 108.272 4.80853C108.542 4.18087 108.677 3.70214 108.677 3.37236C108.677 3.04257 108.538 2.87945 108.258 2.87945C107.868 2.87945 107.265 3.27661 106.449 4.07448C106.03 4.49292 105.576 5.00356 105.09 5.6064C104.601 6.20924 103.881 7.26597 102.923 8.77307C101.965 10.2837 101.359 11.3475 101.1 11.9646C100.869 12.5036 100.568 12.7731 100.188 12.7731C99.9188 12.7731 99.7592 12.6773 99.7095 12.4894C99.6811 12.4078 99.6811 12.3475 99.7095 12.3014C99.7379 12.2553 99.8337 12.0887 99.9933 11.8014C100.153 11.5142 100.316 11.2092 100.486 10.8901C100.657 10.5709 100.859 10.1383 101.093 9.58867C101.327 9.03902 101.543 8.48229 101.742 7.91491C102.221 6.51065 102.544 5.06739 102.714 3.58158C102.732 3.41136 102.742 3.20214 102.742 2.94682C102.742 2.6915 102.675 2.49292 102.54 2.34044C102.405 2.1915 102.263 2.11704 102.114 2.11704C101.625 2.11704 101.089 2.48583 100.501 3.22342C99.7024 4.20924 99.0107 5.17732 98.4219 6.13122C97.8331 7.08158 97.3826 7.883 97.0705 8.52839C96.7548 9.17732 96.393 9.95392 95.9779 10.8688C95.5629 11.7802 95.3466 12.266 95.3182 12.3263C95.2898 12.3865 95.2579 12.461 95.2153 12.5497C95.1727 12.6383 95.1337 12.7234 95.1018 12.805C94.9706 13.0922 94.6939 13.2376 94.2647 13.2376C94.0164 13.2376 93.8816 13.1596 93.8603 13C93.8603 12.9716 93.8639 12.9362 93.8745 12.8972C94.5307 11.8794 95.2614 10.3404 96.056 8.28016C97.074 5.67023 97.5812 3.76597 97.5812 2.57094C97.5812 1.1454 96.9924 0.432638 95.8183 0.432638C95.0592 0.432638 94.1051 0.797886 92.9558 1.52484C91.803 2.25179 90.8524 3.18441 90.0933 4.31916C89.7953 4.76597 89.5719 5.20214 89.4193 5.62058C89.1604 6.38654 89.0291 6.99647 89.0291 7.44328C89.0291 8.72697 89.4583 9.57449 90.3132 9.98229C90.6112 10.1312 90.9162 10.2057 91.2248 10.2057C92.2996 10.2057 93.1828 9.62413 93.871 8.45746C94.2186 7.86881 94.3959 7.35817 94.3959 6.91846L94.3924 6.922Z" fill="#161616"/>
<path id="Vector_7" d="M106.602 16.9929C106.162 16.9929 105.825 16.9007 105.584 16.7163C105.342 16.5319 105.225 16.3121 105.225 16.0532C105.225 15.7943 105.3 15.5 105.449 15.1702C105.708 14.6631 106.176 14.2518 106.853 13.9433C107.361 13.7057 108.035 13.4823 108.872 13.2802C109.709 13.0745 110.248 12.9397 110.486 12.8688C110.844 12.2412 111.273 11.1206 111.77 9.50711C111.192 10.5248 110.709 11.2341 110.319 11.6454C109.929 12.0532 109.535 12.2589 109.138 12.2589C108.599 12.2589 108.286 12.0355 108.194 11.5851C108.035 10.8653 108.499 9.77306 108.567 9.61349L108.836 9.09221C109.173 8.44328 109.453 7.89718 109.673 7.44682C109.773 7.2376 109.968 7.13477 110.255 7.13477H111.167C111.145 7.15604 111.096 7.19505 111.018 7.25533C110.837 7.3759 110.702 7.5142 110.613 7.67377C110.255 8.29079 109.805 9.17377 109.269 10.3192C109.049 10.7872 108.939 11.1312 108.939 11.3511C108.939 11.5709 108.978 11.7234 109.053 11.8156C109.127 11.9078 109.23 11.9504 109.358 11.9504C109.546 11.9504 109.812 11.7518 110.149 11.3511C110.855 10.5248 111.638 9.22342 112.497 7.45037C112.607 7.24115 112.802 7.13831 113.079 7.13831H113.887C113.628 7.31916 113.423 7.54257 113.274 7.81916C113.125 8.09576 112.962 8.46455 112.788 8.93264C112.614 9.40072 112.394 10.0248 112.132 10.8014C111.869 11.578 111.667 12.1631 111.525 12.5497C112.461 12.2695 113.178 11.7766 113.678 11.0709C113.898 10.7624 114.21 10.2128 114.622 9.42555C114.693 9.28725 114.753 9.23051 114.81 9.26243C114.866 9.29079 114.891 9.33335 114.891 9.38299C114.891 9.43264 114.81 9.62413 114.643 9.95746C114.476 10.2908 114.313 10.5993 114.143 10.883C113.972 11.1667 113.753 11.4575 113.487 11.7553C113.22 12.0532 112.919 12.2908 112.589 12.4646C112.259 12.6383 111.823 12.8263 111.273 13.0248C110.507 14.4185 109.734 15.4468 108.957 16.1029C108.23 16.7021 107.442 17 106.594 17L106.602 16.9929ZM105.736 15.5142C105.626 15.7341 105.573 15.9362 105.573 16.1206C105.573 16.305 105.644 16.4468 105.782 16.5461C105.921 16.6454 106.098 16.6951 106.307 16.6951C106.885 16.6951 107.503 16.3972 108.162 15.805C108.819 15.2128 109.397 14.578 109.897 13.9007L110.227 13.3475C108.581 13.7766 107.545 14.0851 107.119 14.2731C106.481 14.5532 106.023 14.9646 105.743 15.5142H105.736Z" fill="#161616"/>
</g>
<path id="Vector_8" d="M112.851 0.623817C112.851 0.506796 112.89 0.414598 112.964 0.347222C113.039 0.2763 113.135 0.244385 113.252 0.244385H122.393C122.495 0.244385 122.591 0.2763 122.676 0.340129C122.761 0.403959 122.808 0.499704 122.818 0.627364V2.14509C122.818 2.26212 122.783 2.36141 122.708 2.45006C122.634 2.53871 122.531 2.58126 122.393 2.58126H119.09V12.7444C119.09 12.8472 119.055 12.943 118.98 13.0245C118.909 13.1061 118.806 13.1451 118.682 13.1451H116.969C116.866 13.1451 116.77 13.1061 116.685 13.0316C116.6 12.9572 116.558 12.8614 116.558 12.7444V2.57772H113.248C113.131 2.57772 113.035 2.54226 112.961 2.46779C112.886 2.39687 112.847 2.28694 112.847 2.14155V0.623817H112.851Z" fill="#161616"/>
<path id="Vector_9" d="M131.567 11.9257C131.056 12.3583 130.499 12.7023 129.893 12.9505C129.286 13.1987 128.623 13.3228 127.899 13.3228C127.115 13.3228 126.374 13.1739 125.675 12.8796C124.976 12.5852 124.359 12.1774 123.834 11.6632C123.306 11.1491 122.887 10.5427 122.579 9.85119C122.27 9.1597 122.114 8.41502 122.114 7.6136C122.114 7.09941 122.178 6.59941 122.305 6.12069C122.433 5.64197 122.614 5.18806 122.848 4.76963C123.082 4.35119 123.37 3.96466 123.703 3.6136C124.036 3.26253 124.412 2.96466 124.827 2.71289C125.242 2.46111 125.689 2.26962 126.175 2.13487C126.658 2.00012 127.168 1.9292 127.708 1.9292C128.147 1.9292 128.584 1.98239 129.009 2.08877C129.439 2.19516 129.847 2.34764 130.23 2.54622C130.616 2.7448 130.975 2.98239 131.312 3.26253C131.648 3.54267 131.943 3.86182 132.198 4.21289C132.546 4.6987 132.801 5.22353 132.964 5.78381C133.128 6.34409 133.209 6.96821 133.209 7.6526C133.209 7.81927 133.202 7.96112 133.188 8.07459C133.174 8.18807 133.138 8.28026 133.078 8.34764C133.018 8.41501 132.933 8.46821 132.819 8.50012C132.702 8.53204 132.542 8.54622 132.333 8.54622H124.625C124.7 8.96466 124.845 9.33346 125.054 9.6526C125.267 9.9753 125.516 10.2448 125.806 10.4682C126.097 10.6916 126.413 10.8583 126.753 10.9718C127.094 11.0852 127.438 11.142 127.779 11.142C128.038 11.142 128.289 11.1171 128.531 11.064C128.772 11.0108 128.995 10.9434 129.205 10.8547C129.414 10.7661 129.605 10.6668 129.783 10.5533C129.96 10.4398 130.116 10.3228 130.247 10.2023C130.247 10.1952 130.247 10.1952 130.254 10.1952C130.325 10.1313 130.389 10.0817 130.453 10.0427C130.517 10.0037 130.584 9.98594 130.652 9.98594C130.705 9.98594 130.762 10.0037 130.829 10.0391C130.897 10.0746 130.96 10.1313 131.024 10.2129C131.18 10.4044 131.315 10.564 131.425 10.6916C131.535 10.8193 131.624 10.9257 131.695 11.0143C131.766 11.103 131.815 11.1774 131.847 11.2413C131.879 11.3051 131.893 11.3689 131.893 11.4327C131.893 11.5959 131.783 11.7554 131.563 11.9186L131.567 11.9257ZM127.708 4.08877C127.367 4.08877 127.034 4.14906 126.707 4.27672C126.381 4.40083 126.087 4.57104 125.817 4.78381C125.547 4.99658 125.313 5.24835 125.115 5.53913C124.916 5.82991 124.767 6.14197 124.675 6.47885H130.829C130.737 6.12424 130.595 5.80154 130.407 5.51076C130.219 5.21998 129.992 4.96821 129.726 4.75544C129.46 4.54267 129.155 4.37955 128.814 4.26608C128.474 4.14906 128.105 4.09232 127.711 4.09232L127.708 4.08877Z" fill="#161616"/>
<path id="Vector_10" d="M143.604 11.9257C143.093 12.3583 142.537 12.7023 141.93 12.9505C141.323 13.1987 140.66 13.3228 139.937 13.3228C139.153 13.3228 138.411 13.1739 137.712 12.8796C137.014 12.5852 136.396 12.1774 135.872 11.6632C135.343 11.1491 134.924 10.5427 134.616 9.85119C134.307 9.1597 134.151 8.41502 134.151 7.6136C134.151 7.09941 134.215 6.59941 134.343 6.12069C134.47 5.64197 134.651 5.18806 134.885 4.76963C135.12 4.35119 135.407 3.96466 135.74 3.6136C136.074 3.26253 136.45 2.96466 136.865 2.71289C137.28 2.46111 137.727 2.26962 138.213 2.13487C138.695 2.00012 139.206 1.9292 139.745 1.9292C140.185 1.9292 140.621 1.98239 141.047 2.08877C141.476 2.19516 141.884 2.34764 142.267 2.54622C142.654 2.7448 143.012 2.98239 143.349 3.26253C143.686 3.54267 143.98 3.86182 144.236 4.21289C144.583 4.6987 144.839 5.22353 145.002 5.78381C145.165 6.34409 145.247 6.96821 145.247 7.6526C145.247 7.81927 145.239 7.96112 145.225 8.07459C145.211 8.18807 145.176 8.28026 145.115 8.34764C145.055 8.41501 144.97 8.46821 144.856 8.50012C144.739 8.53204 144.58 8.54622 144.37 8.54622H136.663C136.737 8.96466 136.882 9.33346 137.092 9.6526C137.305 9.9753 137.553 10.2448 137.844 10.4682C138.135 10.6916 138.45 10.8583 138.791 10.9718C139.131 11.0852 139.475 11.142 139.816 11.142C140.075 11.142 140.327 11.1171 140.568 11.064C140.809 11.0108 141.033 10.9434 141.242 10.8547C141.451 10.7661 141.643 10.6668 141.82 10.5533C141.997 10.4398 142.153 10.3228 142.285 10.2023C142.285 10.1952 142.285 10.1952 142.292 10.1952C142.363 10.1313 142.427 10.0817 142.49 10.0427C142.554 10.0037 142.622 9.98594 142.689 9.98594C142.742 9.98594 142.799 10.0037 142.866 10.0391C142.934 10.0746 142.998 10.1313 143.062 10.2129C143.218 10.4044 143.352 10.564 143.462 10.6916C143.572 10.8193 143.661 10.9257 143.732 11.0143C143.803 11.103 143.853 11.1774 143.884 11.2413C143.916 11.3051 143.931 11.3689 143.931 11.4327C143.931 11.5959 143.821 11.7554 143.601 11.9186L143.604 11.9257ZM139.745 4.08877C139.404 4.08877 139.071 4.14906 138.745 4.27672C138.418 4.40083 138.124 4.57104 137.854 4.78381C137.585 4.99658 137.351 5.24835 137.152 5.53913C136.953 5.82991 136.804 6.14197 136.712 6.47885H142.866C142.774 6.12424 142.632 5.80154 142.444 5.51076C142.256 5.21998 142.029 4.96821 141.763 4.75544C141.497 4.54267 141.192 4.37955 140.852 4.26608C140.511 4.14906 140.142 4.09232 139.749 4.09232L139.745 4.08877Z" fill="#161616"/>
<path id="Vector_11" d="M147.79 10.0322C147.91 10.2237 148.066 10.3868 148.251 10.5287C148.435 10.667 148.627 10.7804 148.818 10.8726C149.013 10.9613 149.198 11.0287 149.375 11.0677C149.553 11.1102 149.691 11.1279 149.797 11.1279C149.96 11.1279 150.152 11.1102 150.372 11.0748C150.592 11.0393 150.798 10.979 150.993 10.8868C151.188 10.7982 151.351 10.674 151.489 10.5216C151.624 10.3691 151.695 10.174 151.695 9.93646C151.695 9.69887 151.642 9.51802 151.535 9.37263C151.429 9.22724 151.284 9.10667 151.099 9.01093C150.915 8.91518 150.709 8.83717 150.475 8.77334C150.241 8.70951 149.992 8.63859 149.733 8.56412C149.123 8.401 148.605 8.20596 148.176 7.97901C147.747 7.74851 147.396 7.48965 147.119 7.19178C146.843 6.89745 146.644 6.57121 146.516 6.22014C146.388 5.86908 146.325 5.48256 146.325 5.06412C146.325 4.59603 146.417 4.16695 146.601 3.78043C146.786 3.3939 147.048 3.06057 147.385 2.78043C147.722 2.50383 148.127 2.28752 148.598 2.13504C149.07 1.98256 149.592 1.90454 150.166 1.90454C150.571 1.90454 150.932 1.94 151.252 2.01447C151.571 2.08894 151.865 2.19532 152.138 2.34071C152.411 2.4861 152.667 2.66695 152.908 2.88681C153.149 3.10667 153.394 3.36553 153.642 3.65986C153.731 3.7627 153.774 3.86553 153.774 3.96483C153.774 4.06766 153.717 4.16695 153.6 4.25915C153.511 4.33007 153.408 4.41518 153.291 4.51802C153.174 4.62085 153.054 4.72369 152.94 4.82298C152.823 4.92227 152.713 5.00383 152.61 5.07475C152.507 5.14568 152.419 5.17759 152.348 5.17759C152.22 5.17759 152.096 5.10312 151.975 4.95064C151.848 4.8017 151.72 4.66695 151.592 4.55702C151.464 4.44355 151.33 4.35135 151.191 4.28043C151.053 4.20951 150.9 4.15277 150.741 4.11731C150.578 4.0783 150.4 4.06057 150.209 4.06057C150.053 4.06057 149.889 4.08539 149.719 4.13149C149.549 4.17759 149.393 4.24851 149.251 4.34071C149.109 4.43291 148.992 4.54639 148.896 4.67405C148.801 4.80525 148.754 4.95064 148.754 5.11376C148.754 5.29816 148.815 5.45773 148.932 5.58894C149.049 5.72014 149.201 5.83362 149.382 5.92936C149.563 6.02511 149.762 6.10312 149.978 6.16695C150.195 6.23078 150.393 6.28752 150.578 6.34071C151.11 6.48965 151.599 6.66341 152.043 6.86199C152.486 7.06057 152.873 7.29816 153.192 7.5783C153.515 7.85844 153.763 8.18823 153.944 8.56766C154.121 8.9471 154.213 9.39036 154.213 9.901C154.213 10.44 154.107 10.9223 153.894 11.3478C153.681 11.7733 153.383 12.135 153.007 12.4294C152.631 12.7237 152.181 12.9506 151.663 13.1067C151.145 13.2627 150.581 13.3407 149.975 13.3407C149.609 13.3407 149.24 13.3017 148.861 13.2237C148.485 13.1457 148.123 13.0251 147.779 12.8584C147.435 12.6918 147.116 12.4826 146.825 12.2237C146.53 11.9648 146.286 11.6599 146.091 11.3088C146.002 11.1634 145.959 11.0322 145.959 10.9187C145.959 10.8443 145.977 10.7769 146.016 10.7237C146.055 10.6705 146.105 10.6138 146.169 10.5641L147.14 9.81589C147.229 9.7627 147.307 9.73788 147.375 9.73788C147.456 9.73788 147.527 9.76624 147.591 9.81944C147.655 9.87263 147.726 9.9471 147.8 10.0393L147.79 10.0322Z" fill="#161616"/>
<path id="Vector_12" d="M24.9676 6.66312C24.9676 10.3369 21.9774 13.3227 18.3061 13.3227C16.0821 13.3227 14.0319 12.227 12.801 10.4149L12.9003 10.344C13.3331 10.0319 13.7978 9.71277 14.2873 9.37944C15.1847 10.7057 16.678 11.5106 18.3061 11.5106C20.9807 11.5106 23.1586 9.33688 23.1586 6.65958C23.1586 3.98227 20.9842 1.80851 18.3061 1.80851C16.8093 1.80851 15.3337 2.86525 13.2941 4.32979L13.1273 4.45036C12.3789 4.98582 11.556 5.54255 10.6834 6.13121C10.4351 6.29787 10.1797 6.47163 9.92076 6.64539L10.4386 7.39007L6.83832 7.6844L8.38131 4.41844L8.88855 5.15248C9.15458 4.97518 9.41352 4.79787 9.66537 4.62766C10.013 4.39362 10.3535 4.16312 10.6834 3.93972C11.1729 3.60993 11.6376 3.28723 12.0703 2.97518L12.1696 2.90426L12.2335 2.85816C14.4611 1.26241 16.224 0 18.3026 0C21.9774 0 24.9641 2.98936 24.9641 6.66312H24.9676Z" fill="#FF9719"/>
<path id="Vector_13" d="M18.1328 5.63475L16.5863 8.90071L16.0791 8.16667C15.813 8.34752 15.5505 8.52128 15.2952 8.69504C14.9511 8.92908 14.6106 9.15603 14.2842 9.37944C13.7947 9.71277 13.3301 10.0319 12.8973 10.344L12.798 10.4149L12.7341 10.461C10.503 12.0603 8.74363 13.3227 6.66503 13.3227C2.99022 13.3227 0 10.3333 0 6.66312C0 2.99291 2.99022 0 6.66503 0C8.88552 0 10.9358 1.09929 12.1701 2.9078L12.0708 2.97872C11.6381 3.29078 11.1734 3.60993 10.6839 3.94326C9.78649 2.61702 8.28606 1.81206 6.66503 1.81206C3.9905 1.81206 1.81257 3.98582 1.81257 6.66312C1.81257 9.34043 3.98696 11.5142 6.66503 11.5142C8.16191 11.5142 9.63751 10.4574 11.6806 8.98936L11.8438 8.87234C12.5923 8.33688 13.4152 7.78014 14.2842 7.19149C14.5361 7.02128 14.7879 6.85107 15.0504 6.67376L14.5325 5.92908L18.1328 5.63475Z" fill="#00A6AC"/>
</g>
</svg>
