<svg width="62" height="17" viewBox="0 0 62 17" fill="none" xmlns="http://www.w3.org/2000/svg">
<g id="Social icons">
<g id="Twitter">
<path id="Oval 10 Copy" fill-rule="evenodd" clip-rule="evenodd" d="M52.9102 16.2784C57.2203 16.2784 60.7144 12.8582 60.7144 8.63922C60.7144 4.4202 57.2203 1 52.9102 1C48.6001 1 45.106 4.4202 45.106 8.63922C45.106 12.8582 48.6001 16.2784 52.9102 16.2784Z" stroke="#161616"/>
<path id="Shape" d="M55.4616 7.22687C55.4253 7.1868 55.367 7.17673 55.3191 7.20144C55.2893 7.21679 55.2333 7.23695 55.1668 7.25686C55.2507 7.14458 55.3181 7.01886 55.3479 6.90586C55.3608 6.85716 55.3419 6.80581 55.3009 6.77678C55.26 6.74799 55.2054 6.74799 55.1644 6.77678C55.0998 6.82213 54.7881 6.9584 54.5911 7.00255C54.1457 6.6098 53.6274 6.56901 53.0887 6.88571C52.6507 7.14314 52.5554 7.66664 52.574 7.98573C51.5715 7.88857 50.9483 7.35547 50.5976 6.91426C50.573 6.88331 50.5335 6.86699 50.4963 6.86939C50.4572 6.87227 50.422 6.8941 50.4019 6.92793C50.2361 7.20984 50.1901 7.52149 50.2694 7.82931C50.3128 7.99725 50.3886 8.14528 50.4765 8.26524C50.4343 8.24437 50.3936 8.21822 50.3552 8.18703C50.32 8.15776 50.2706 8.15224 50.2289 8.17167C50.1875 8.19158 50.161 8.23381 50.161 8.28011C50.161 8.80866 50.4894 9.16134 50.7961 9.34559C50.7465 9.3396 50.6948 9.32856 50.6426 9.31248C50.5978 9.29881 50.5492 9.31248 50.5182 9.34799C50.4872 9.38326 50.4799 9.43364 50.4992 9.47659C50.6714 9.86022 50.9979 10.1241 51.4018 10.2199C51.0491 10.4283 50.5771 10.5306 50.1448 10.4804C50.0888 10.4725 50.0354 10.5082 50.0178 10.5625C50.0002 10.6167 50.0233 10.6762 50.0726 10.704C50.7284 11.0747 51.3213 11.2071 51.8336 11.2071C52.5792 11.2071 53.1547 10.9269 53.505 10.6925C54.4493 10.0615 55.0379 8.92861 54.9559 7.91496C55.1072 7.80244 55.3336 7.59467 55.4739 7.3713C55.503 7.3262 55.4978 7.2667 55.4616 7.22687Z" fill="#161616"/>
</g>
<g id="Facebook">
<path id="Oval 10" fill-rule="evenodd" clip-rule="evenodd" d="M30.6123 16.2784C34.9224 16.2784 38.4165 12.8582 38.4165 8.63922C38.4165 4.4202 34.9224 1 30.6123 1C26.3022 1 22.8082 4.4202 22.8082 8.63922C22.8082 12.8582 26.3022 16.2784 30.6123 16.2784Z" stroke="#161616"/>
<path id="Shape_2" d="M31.3225 6.68388H32.0398C32.1058 6.68388 32.1593 6.63449 32.1593 6.57362V5.91202C32.1593 5.85116 32.1058 5.80176 32.0398 5.80176H31.3225C30.5976 5.80176 30.0076 6.34581 30.0076 7.01468V7.78654H29.1708C29.1048 7.78654 29.0512 7.83594 29.0512 7.89681V8.5584C29.0512 8.61927 29.1048 8.66867 29.1708 8.66867H30.0076V10.9843C30.0076 11.0451 30.0611 11.0945 30.1271 11.0945H30.8444C30.9103 11.0945 30.9639 11.0451 30.9639 10.9843V8.66867H31.8007C31.8521 8.66867 31.8978 8.63824 31.9143 8.59325L32.1534 7.93165C32.1655 7.89813 32.1593 7.86108 32.1369 7.83219C32.1141 7.80352 32.0783 7.78654 32.0398 7.78654H30.9639V7.01468C30.9639 6.8323 31.1248 6.68388 31.3225 6.68388Z" fill="#161616"/>
</g>
<g id="Linkedin">
<path id="Oval 10 Copy 3" fill-rule="evenodd" clip-rule="evenodd" d="M8.31441 16.2784C12.6245 16.2784 16.1186 12.8582 16.1186 8.63922C16.1186 4.4202 12.6245 1 8.31441 1C4.00429 1 0.510254 4.4202 0.510254 8.63922C0.510254 12.8582 4.00429 16.2784 8.31441 16.2784Z" stroke="#161616"/>
<g id="Group 36">
<path id="Oval" d="M6.52338 7.09698C6.88876 7.09698 7.18497 6.80703 7.18497 6.44937C7.18497 6.0917 6.88876 5.80176 6.52338 5.80176C6.15799 5.80176 5.86179 6.0917 5.86179 6.44937C5.86179 6.80703 6.15799 7.09698 6.52338 7.09698Z" fill="#161616"/>
<path id="Shape_3" d="M7.07458 7.52979H5.97193C5.91106 7.52979 5.86166 7.57814 5.86166 7.63772V10.8758C5.86166 10.9353 5.91106 10.9837 5.97193 10.9837H7.07458C7.13545 10.9837 7.18485 10.9353 7.18485 10.8758V7.63772C7.18485 7.57814 7.13545 7.52979 7.07458 7.52979Z" fill="#161616"/>
<path id="Shape_4" d="M10.3608 7.34986C9.88954 7.19185 9.30006 7.33065 8.94655 7.57955C8.93442 7.53314 8.89119 7.4986 8.83981 7.4986H7.73716C7.67629 7.4986 7.62689 7.54695 7.62689 7.60653V10.8446C7.62689 10.9042 7.67629 10.9525 7.73716 10.9525H8.83981C8.90068 10.9525 8.95008 10.9042 8.95008 10.8446V8.5175C9.12826 8.36726 9.35784 8.31933 9.54573 8.39748C9.72789 8.47282 9.8322 8.65674 9.8322 8.90175V10.8446C9.8322 10.9042 9.8816 10.9525 9.94246 10.9525H11.0451C11.106 10.9525 11.1554 10.9042 11.1554 10.8446V8.68437C11.1428 7.79736 10.7165 7.46902 10.3608 7.34986Z" fill="#161616"/>
</g>
</g>
</g>
</svg>
