<svg width="23" height="21" viewBox="0 0 23 21" fill="none" xmlns="http://www.w3.org/2000/svg">
<g id="Socks">
<g id="Group">
<path id="Vector" d="M5.71155 19.9997C5.79194 19.9997 5.87318 19.998 5.95527 19.9955C7.68499 19.9396 8.5634 19.4721 9.77861 18.8258C10.2559 18.5717 10.7966 18.2837 11.4677 17.9805C12.6355 17.4536 13.6646 17.4155 14.5726 17.3825C15.4747 17.3495 16.3277 17.3181 17.1401 16.8285C18.2182 16.1789 18.2233 14.988 18.2284 13.8361C18.2309 13.1382 18.2343 12.4165 18.4586 11.7779C19.0535 10.0906 21.5042 7.49795 21.5296 7.47169L21.7217 7.2701L17.0174 3.55176L16.8735 3.81602C16.8659 3.82957 16.1018 5.2229 14.8307 6.99059C14.6885 7.18794 14.5345 7.40393 14.3712 7.63516L13.8271 8.40086C13.7035 8.57449 13.5766 8.75321 13.4462 8.93362C13.4005 8.99799 13.3557 9.06067 13.3091 9.12504L13.2855 9.15808C13.2381 9.22415 13.1898 9.29021 13.1416 9.35712L12.9723 9.59005C12.6008 10.1008 12.2708 10.5455 11.9645 10.9486C11.9188 11.0096 11.8731 11.0689 11.8265 11.1282C11.4423 11.6296 11.0759 12.0904 10.7349 12.4995L10.5868 12.6748C10.3244 12.984 10.0714 13.2694 9.83531 13.5218L9.76507 13.5947C9.73968 13.6218 9.71853 13.6438 9.69652 13.6667C9.6796 13.6845 9.66352 13.7014 9.64744 13.7175C9.60428 13.7624 9.56535 13.8022 9.52558 13.842L9.48496 13.8827C9.47058 13.8971 9.45704 13.9115 9.44265 13.925C7.57668 15.7715 6.61365 16.2407 5.02947 16.6515L4.82553 16.704C3.18804 17.1275 2.5102 17.3037 2.37903 18.0999C2.33164 18.3904 2.44335 18.7081 2.69384 18.9943C3.25151 19.6304 4.36771 19.9989 5.7107 19.9989L5.71155 19.9997ZM20.9719 7.32516C20.3677 7.98582 18.5161 10.0864 17.9796 11.6085C17.7266 12.3276 17.7232 13.0933 17.7198 13.8335C17.7156 14.9372 17.7113 15.8901 16.8778 16.3923C16.1771 16.8141 15.4248 16.8421 14.5531 16.8743C13.5986 16.909 12.5162 16.9488 11.2578 17.5172C10.5724 17.8272 10.0232 18.1194 9.53912 18.3769C8.34168 19.0147 7.55044 19.4356 5.93834 19.4881C4.01229 19.5508 3.25997 18.8698 3.07549 18.6598C2.92909 18.4929 2.85801 18.3193 2.88001 18.1829C2.95363 17.7331 3.40384 17.5976 4.95247 17.197L5.15641 17.1445C6.83367 16.7091 7.84917 16.2162 9.79722 14.2892C9.81246 14.2748 9.82938 14.2579 9.84631 14.2401L9.88523 14.2011C9.9267 14.1596 9.96901 14.1164 10.0105 14.0732C10.0266 14.0571 10.046 14.0377 10.0638 14.0182C10.0858 13.9953 10.1103 13.9699 10.134 13.9445L10.2034 13.8717C10.4471 13.6108 10.7061 13.3194 10.9752 13.0026L11.1241 12.8256C11.4703 12.4097 11.8418 11.9439 12.2285 11.4382C12.2759 11.3772 12.3233 11.3162 12.3698 11.2544C12.677 10.8495 13.0087 10.4023 13.3836 9.8882L13.5529 9.65442C13.6011 9.58666 13.6485 9.5206 13.6959 9.45538L13.7196 9.42234C13.767 9.35712 13.8127 9.29275 13.8584 9.22838C13.9878 9.04797 14.1156 8.86925 14.2392 8.69477L14.7833 7.92907C14.9466 7.69869 15.099 7.4844 15.2411 7.28704C16.2075 5.9437 16.8862 4.81125 17.1697 4.32084L20.9711 7.32601L20.9719 7.32516Z" fill="#474747" stroke="#474747" stroke-width="0.2"/>
<path id="Vector_2" d="M16.5576 4.91681L20.5908 8.13477L20.2743 8.53216L16.2411 5.3142L16.5576 4.91681Z" fill="#474747" stroke="#474747" stroke-width="0.2"/>
<path id="Vector_3" d="M13.845 17.1834L14.3477 17.1106C14.263 16.5262 14.2419 15.4047 15.0416 14.4679C15.7524 13.6362 16.8399 13.2288 17.951 13.3795L18.0195 12.8756C16.7375 12.7011 15.4799 13.1729 14.6565 14.1367C13.7265 15.2268 13.7494 16.5126 13.8458 17.1826L13.845 17.1834Z" fill="#474747" stroke="#474747" stroke-width="0.2"/>
<path id="Vector_4" d="M5.39665 15.3135C6.44346 15.3135 7.21946 15.0637 8.20026 14.7494C8.64877 14.6054 9.15652 14.442 9.75397 14.2836L9.81998 14.2658L9.88429 14.2014C9.92576 14.1599 9.96807 14.1167 10.0095 14.0735C10.0256 14.0574 10.0451 14.0371 10.0629 14.0185C10.0849 13.9956 10.1094 13.9702 10.1331 13.9448L10.2033 13.8719C10.447 13.611 10.706 13.3197 10.9751 13.0029L11.124 12.8259C11.4702 12.41 11.8417 11.9441 12.2284 11.4385C12.2758 11.3775 12.3232 11.3165 12.3697 11.2547C12.6769 10.8498 13.0086 10.4026 13.3835 9.88846L13.5528 9.65469C13.601 9.58693 13.6484 9.52086 13.6958 9.45565L13.7195 9.42261C13.7669 9.35739 13.8126 9.29302 13.8583 9.22865C13.9877 9.04824 14.1155 8.86951 14.2391 8.69503L14.7832 7.92934C14.9465 7.69896 15.0989 7.48466 15.241 7.28731C16.2074 5.94396 16.8861 4.81152 17.1696 4.32111L20.3304 6.81892L20.4886 6.68424C21.1961 6.08457 21.7707 5.66276 21.7757 5.65852L22 5.4942L18.0294 1L17.8407 1.23462C17.8305 1.24733 16.832 2.48226 15.2681 3.99501C15.0278 4.22793 14.7595 4.49051 14.4701 4.7751C12.8064 6.40558 10.5274 8.63913 8.73678 9.86898C6.57547 11.3529 5.54474 11.6435 3.91233 11.7671L3.70077 11.7832C2.01505 11.9103 1.3169 11.9628 1.04779 12.7225C0.949627 13.0012 1.00379 13.3332 1.20012 13.6593C1.66216 14.4267 2.79529 15.0111 4.23052 15.222C4.66126 15.2856 5.04377 15.3135 5.3958 15.3135H5.39665ZM9.55764 13.8101C8.97627 13.9659 8.48206 14.1243 8.04455 14.2649C6.75318 14.68 5.90017 14.9535 4.30499 14.7189C2.39755 14.4386 1.77895 13.6356 1.63509 13.3959C1.52 13.2053 1.48107 13.0215 1.52676 12.8911C1.67909 12.4634 2.14537 12.4091 3.7397 12.2889L3.95126 12.2728C5.6793 12.1423 6.76672 11.8374 9.02451 10.2866C10.8516 9.03214 13.1483 6.7808 14.8255 5.13677C15.1149 4.85387 15.3824 4.5913 15.6218 4.35922C16.81 3.20983 17.6791 2.21545 18.0446 1.78263L21.2536 5.41459C21.0463 5.57298 20.712 5.83385 20.3194 6.16164L17.0156 3.55033L16.8717 3.81459C16.8641 3.82815 16.1 5.22147 14.8289 6.98917C14.6867 7.18652 14.5327 7.40251 14.3694 7.63374L13.8253 8.39943C13.7017 8.57306 13.5748 8.75179 13.4445 8.9322C13.3988 8.99657 13.3539 9.05924 13.3074 9.12362L13.2837 9.15665C13.2363 9.22272 13.188 9.28879 13.1398 9.3557L12.9706 9.58863C12.5991 10.0994 12.269 10.544 11.9627 10.9472C11.917 11.0082 11.8713 11.0675 11.8247 11.1268C11.4405 11.6282 11.0741 12.089 10.7331 12.4981L10.585 12.6734C10.3226 12.9826 10.0696 13.268 9.83352 13.5204L9.76328 13.5933C9.73789 13.6204 9.71674 13.6424 9.69473 13.6653C9.67781 13.683 9.66173 13.7 9.64565 13.7161C9.61434 13.7491 9.58472 13.7788 9.55595 13.8084L9.55764 13.8101Z" fill="#474747" stroke="#474747" stroke-width="0.2"/>
<path id="Vector_5" d="M17.3352 2.25964L20.7354 6.1416L20.3535 6.47662L16.9534 2.59466L17.3352 2.25964Z" fill="#474747" stroke="#474747" stroke-width="0.2"/>
</g>
</g>
</svg>
