<svg width="19" height="19" viewBox="0 0 19 19" fill="none" xmlns="http://www.w3.org/2000/svg">
<g id="T-Shirt">
<path id="Vector" d="M9.52689 2.78215C10.8798 2.78215 12.1428 2.07464 12.8221 0.936466L12.9795 0.672565L12.6798 0.582708C12.3168 0.473424 12.0021 0.38438 11.7431 0.311524L11.5716 0.26376L11.4692 0.405425C11.0247 1.02065 10.2987 1.38736 9.52605 1.38736C8.75344 1.38736 8.01913 1.0158 7.57621 0.393283L7.47464 0.25L7.3023 0.297761C7.13163 0.344712 6.78362 0.442662 6.36567 0.567327L6.06679 0.656374L6.22248 0.920275C6.90017 2.06897 8.16649 2.78215 9.52605 2.78215H9.52689ZM12.2169 0.952655C11.5991 1.78807 10.5951 2.29644 9.52689 2.29644C8.45872 2.29644 7.44467 1.78321 6.82774 0.938895C7.00175 0.887895 7.1541 0.84499 7.27399 0.810991C7.81682 1.47884 8.64604 1.87226 9.52689 1.87226C10.4077 1.87226 11.227 1.48369 11.7698 0.823943C11.9063 0.8628 12.0554 0.904893 12.2169 0.951845V0.952655Z" fill="#474747" stroke="#474747" stroke-width="0.2"/>
<path id="Vector_2" d="M10.1702 18.7498C11.9669 18.7498 13.1815 18.6875 13.8726 18.5596C14.5336 18.4374 14.8209 18.239 14.8641 17.8756C14.8858 17.6926 14.8666 17.2563 14.8242 16.365C14.7851 15.5385 14.7318 14.406 14.7101 13.1594C14.6801 11.4731 14.6568 8.93613 14.646 7.59801C14.979 8.06672 15.1347 8.08291 15.2055 8.091C15.3079 8.10233 15.4053 8.06429 15.4719 7.98819C15.6351 7.80363 16.5318 7.04349 17.5441 6.70998C18.6706 6.34084 18.7796 5.95875 18.7447 5.76285L18.7397 5.7418C18.4949 4.84891 16.3777 2.05043 15.2529 1.49592C14.6402 1.19397 13.5162 0.832118 12.6812 0.58198L12.4914 0.525313L12.3915 0.692072C11.8003 1.68129 10.703 2.29652 9.52746 2.29652C8.3519 2.29652 7.24626 1.67644 6.65682 0.679119L6.55774 0.510742L6.36709 0.568217C5.12408 0.939782 4.24241 1.25225 3.74704 1.49673C2.62225 2.05124 0.505066 4.84891 0.260296 5.74261L0.255297 5.76366C0.220329 5.95875 0.330229 6.34084 1.45584 6.70998C2.53816 7.06535 3.41318 7.85786 3.52974 7.989C3.59634 8.06429 3.69375 8.10152 3.79532 8.091C3.86609 8.08372 4.02178 8.06672 4.3548 7.59801C4.34398 8.93532 4.32067 11.4731 4.29069 13.1594C4.26821 14.406 4.21493 15.5377 4.17663 16.3642C4.13501 17.2563 4.11502 17.6934 4.13667 17.8756C4.17996 18.239 4.46719 18.4374 5.12824 18.5596C5.88337 18.6996 7.26375 18.762 9.34597 18.7482H9.65651C9.83301 18.749 10.0045 18.7498 10.171 18.7498H10.1702ZM14.1323 5.71266L14.139 6.70188C14.139 6.74236 14.1681 10.7956 14.2098 13.1666C14.2322 14.4206 14.2855 15.5571 14.3246 16.3861C14.3588 17.1017 14.3854 17.6667 14.3671 17.8189C14.3296 18.1314 12.7453 18.2803 9.65734 18.2617H9.34347C6.25552 18.2803 4.66951 18.1314 4.63204 17.8189C4.61372 17.6667 4.64037 17.1009 4.6745 16.3853C4.71363 15.5555 4.76692 14.4198 4.78939 13.1666C4.83102 10.7948 4.86016 6.74236 4.86016 6.70188L4.86682 5.71347L4.38977 6.58693C4.19328 6.94635 3.93103 7.36001 3.77534 7.53972C3.41818 7.20702 2.57313 6.56507 1.61403 6.25017C0.982952 6.04294 0.805618 5.86809 0.759829 5.80818C1.05372 4.95496 3.00689 2.405 3.97099 1.92981C4.41058 1.71368 5.22316 1.42306 6.32712 1.08792C7.02564 2.13786 8.23367 2.78223 9.5258 2.78223C10.8179 2.78223 12.016 2.14352 12.7162 1.10168C13.7935 1.42954 14.5894 1.71448 15.0248 1.929C15.9898 2.405 17.9429 4.95415 18.236 5.80737C18.1902 5.86808 18.0129 6.04294 17.381 6.24936C16.4185 6.56588 15.576 7.20702 15.2205 7.53892C15.0648 7.35921 14.8034 6.94554 14.6069 6.58612L14.1298 5.71266H14.1323ZM3.90689 7.67006L3.90855 7.67168L3.90689 7.67006Z" fill="#474747" stroke="#474747" stroke-width="0.2"/>
<path id="Vector_3" d="M9.73365 15.7246C10.5204 15.7246 13.9031 15.6963 14.7373 15.2211L14.4842 14.8018C13.8973 15.1361 11.2481 15.2462 9.6096 15.2389H9.38897C7.7505 15.247 5.10131 15.1361 4.51436 14.8018L4.26126 15.2211C5.15376 15.7303 8.95937 15.727 9.3898 15.7246H9.60793C9.63541 15.7246 9.67787 15.7246 9.73198 15.7246H9.73365Z" fill="#474747" stroke="#474747" stroke-width="0.2"/>
</g>
</svg>
